# xmcd CD database file
#
# Track frame offsets:
#	150
#	12903
#	32777
#	58040
#	75743
#	99017
#	121017
#	139281
#	165974
#	191340
#	210123
#
# Disc length: 2970 seconds
#
# Revision: 0
# Processed by: cddbd v1.5.2PL0 Copyright (c) Steve Scherf et al.
# Submitted via: CDex 1.51
#
DISCID=7a0b980b
DTITLE=Rob Espino y sus amigos de Nueva Orleans - Friends of New Orleans
DYEAR=2006
DGENRE=Jazz
TTITLE0=New Orleans Memoriam (with Monolog)
TTITLE1=Yo No Se
TTITLE2=Whoopin' Blues (Big Fat Woman)
TTITLE3=Caution
TTITLE4=Iko Iko
TTITLE5=Quit Messin' Around
TTITLE6=Cada Vez
TTITLE7=Big Chief
TTITLE8=I'll Fly Away
TTITLE9=Watch Out For Them Potholes
TTITLE10=New Orleans Memoriam (Instrumental)
EXTD=YEAR: 2006
EXTT0=
EXTT1=
EXTT2=
EXTT3=
EXTT4=
EXTT5=
EXTT6=
EXTT7=
EXTT8=
EXTT9=
EXTT10=
PLAYORDER=
